<?xml version="1.0" encoding="UTF-8" standalone="no"?>
<!DOCTYPE svg PUBLIC "-//W3C//DTD SVG 1.1//EN" "http://www.w3.org/Graphics/SVG/1.1/DTD/svg11.dtd">
<svg width="100%" height="100%" viewBox="0 0 256 256" version="1.1" xmlns="http://www.w3.org/2000/svg" xmlns:xlink="http://www.w3.org/1999/xlink" xml:space="preserve" xmlns:serif="http://www.serif.com/" style="fill-rule:evenodd;clip-rule:evenodd;stroke-linecap:round;stroke-linejoin:round;stroke-miterlimit:1.5;">
    <g transform="matrix(2.17273,0,0,2.03492,-712.179,-822.21)">
        <path d="M403.217,521.233C407.982,519.041 407.962,502.373 408.619,496.581C409.402,489.677 413.721,484.231 418.046,477.363C423.149,469.259 429.676,451.619 426.999,438.223C423.801,422.216 411.074,414.462 390.508,410.726C376.265,408.138 360.9,414.014 354.202,421.201C344.652,431.45 341.765,444.861 343.229,454.546C344.56,463.353 352.465,473.748 356.368,478.041C359.17,481.124 363.689,491.478 365.378,499.024C366.656,504.734 367.202,516.942 368.609,519.121C370.03,521.323 375.654,524.204 385.007,524.229C393.547,524.251 398.362,523.467 403.217,521.233Z" style="fill:none;stroke:black;stroke-width:2.38px;"/>
    </g>
    <g transform="matrix(2.65849,0,0,2.48987,-911.859,-1025.17)">
        <path d="M411.81,453.066C403.002,453.59 388.052,458.184 381.538,460.99C374.438,464.05 374.385,463.513 373.901,463.454C373.475,463.402 373.174,462.902 373.607,462.296C374.807,460.616 375.417,459.805 377.341,458.491C380.195,456.542 383.172,455.059 387.117,455.969C388.647,456.322 389.472,457.166 389.817,459.491C390.784,466.016 388.898,472.762 387.516,479.21C386.881,482.176 386.376,483.387 385.641,486.325" style="fill:none;stroke:black;stroke-width:1.94px;"/>
    </g>
    <g transform="matrix(1.09262,0,0,1.09262,-9.50768,-5.37194)">
        <path d="M112.456,174.886C111.543,179.865 95.557,183.796 94.164,186.98C93.699,188.043 94.67,190.343 95.843,190.718C101.481,192.524 133.529,190.448 133.807,190.425C147.543,189.261 157.176,187.838 158.329,187.066C160.924,185.329 159.057,184.628 158.745,184.316C156.656,182.227 118.139,185.34 112.764,186.544" style="fill:none;stroke:black;stroke-width:4.58px;"/>
    </g>
    <g transform="matrix(1.09262,0,0,1.09262,-10.207,9.7499)">
        <path d="M113.404,172.704C103.554,174.179 97.47,178.947 96.864,180.636C96.08,182.822 98.192,185.563 101.873,186.901C104.584,187.888 116.051,188.058 131.139,187.644C145.363,187.253 156.527,184.794 157.703,184.007C160.299,182.269 158.557,181.311 158.12,181.257C152.324,180.545 121.778,181.361 110.39,183.02" style="fill:none;stroke:black;stroke-width:4.58px;"/>
    </g>
    <g transform="matrix(1.09262,0,0,1.09262,-11.7366,21.6594)">
        <path d="M111.79,172.12C103.541,172.727 100.721,176.083 99.483,177.718C98.427,179.114 97.576,182.924 100.969,184.491C105.041,186.371 116.449,188.377 127.654,188.036C148.75,187.394 156.179,183.922 157.354,183.135C159.95,181.397 154.544,181.578 154.104,181.551C148.204,181.195 120.609,180.863 109.27,182.406" style="fill:none;stroke:black;stroke-width:4.58px;"/>
    </g>
    <g transform="matrix(1.09262,0,0,1.09262,-11.9537,31.9258)">
        <path d="M109.468,173.01C102.528,174.001 101.336,174.45 99.536,176.706C98.343,178.201 98.804,179.533 100.288,180.742C101.92,182.073 116.107,186.815 132.017,185.35C152.817,183.433 155.176,181.493 156.832,180.786" style="fill:none;stroke:black;stroke-width:4.58px;"/>
    </g>
</svg>
